# xmcd
#
# Track frame offsets: 
#        150
#        17914
#        40689
#        58279
#        92777
#        109887
#        127651
#        150426
#        168016
#        202514
#
# Disc length: 2926 seconds
#
# Revision: 0
# Processed by: cddbd v1.5.2PL0 Copyright (c) Steve Scherf et al.
# Submitted via: ExactAudioCopyFreeDBPlugin 1.0
#
DISCID=6e0b6c0a
DTITLE=Jagged Edge - Where The Party At (Single)
DYEAR=2001
DGENRE=R&B
TTITLE0=Where The Party At - LP Version featuring Nelly
TTITLE1=Where The Party At (11-01-01 Extended Remix) Feat. Jermaine Du
TTITLE1=pri, Da Brat, R.O.C., Lil Bow Wow and Tigah
TTITLE2=Where The Party At (11-01-01 Remix) Feat. Nelly
TTITLE3=Where The Party At (Speakeasy Dub Mix)
TTITLE4=Where The Party At (Remix Instrumental)
TTITLE5=Where The Party At
TTITLE6=Where The Party At
TTITLE7=Where The Party At
TTITLE8=Where The Party At
TTITLE9=Where The Party At
EXTD=
EXTT0=
EXTT1=
EXTT2=
EXTT3=
EXTT4=
EXTT5=
EXTT6=
EXTT7=
EXTT8=
EXTT9=
PLAYORDER=
